<svg width="300" height="300" viewBox="0 0 300 300" fill="none" xmlns="http://www.w3.org/2000/svg">
<path d="M150 290.624C215.726 290.624 269.007 237.343 269.007 171.618C269.007 105.892 215.726 52.6113 150 52.6113C84.2751 52.6113 30.9941 105.892 30.9941 171.618C30.9941 237.343 84.2751 290.624 150 290.624Z" fill="#FADB87" fill-opacity="0.69"/>
<path d="M150 266.005C202.128 266.005 244.386 223.747 244.386 171.619C244.386 119.491 202.128 77.2324 150 77.2324C97.8715 77.2324 55.6133 119.491 55.6133 171.619C55.6133 223.747 97.8715 266.005 150 266.005Z" fill="#F9A7A7" fill-opacity="0.47"/>
<path d="M174.566 38.6484H125.435C122.722 38.6484 120.521 36.4488 120.521 33.7348V14.2887C120.521 11.5758 122.721 9.375 125.435 9.375H174.566C177.279 9.375 179.48 11.5746 179.48 14.2887V33.7359C179.479 36.4488 177.279 38.6484 174.566 38.6484Z" fill="#FADB87" fill-opacity="0.69"/>
<path d="M67.1307 86.2486C72.0268 81.4955 77.3179 77.149 82.971 73.2877L74.6003 58.7892C73.2432 56.4385 70.2386 55.6346 67.8889 56.9916L58.9065 62.1771C56.5569 63.5342 55.7518 66.5388 57.1077 68.8896L67.1307 86.2486Z" fill="#FFFAF2"/>
<path d="M232.87 86.2495L242.893 68.8894C244.25 66.5386 243.445 63.5339 241.094 62.178L232.111 56.9913C229.762 55.6343 226.757 56.4394 225.4 58.789L217.029 73.2874C222.682 77.1487 227.973 81.4964 232.87 86.2495Z" fill="#FFFAF2"/>
<path d="M166.377 53.7621V38.6484H133.623V53.7621C144.339 52.2855 154.861 52.1754 166.377 53.7621Z" fill="#FFFAF2"/>
<path d="M150 292.968C83.0875 292.968 28.6504 238.53 28.6504 171.618C28.6504 104.705 83.0875 50.2676 150 50.2676C216.913 50.2676 271.35 104.706 271.35 171.618C271.35 238.529 216.913 292.968 150 292.968ZM150 54.9551C85.6726 54.9551 33.3379 107.29 33.3379 171.618C33.3379 235.945 85.6726 288.28 150 288.28C214.328 288.28 266.663 235.945 266.663 171.618C266.663 107.29 214.328 54.9551 150 54.9551Z" fill="#C674FF" fill-opacity="0.85"/>
<path d="M150 268.349C96.6637 268.349 53.2715 224.957 53.2715 171.619C53.2715 118.281 96.6637 74.8887 150 74.8887C203.338 74.8887 246.73 118.281 246.73 171.619C246.73 224.957 203.338 268.349 150 268.349ZM150 79.5762C99.2477 79.5762 57.959 120.866 57.959 171.619C57.959 222.371 99.2477 263.661 150 263.661C200.753 263.661 242.043 222.371 242.043 171.619C242.043 120.866 200.753 79.5762 150 79.5762Z" fill="#C674FF" fill-opacity="0.85"/>
<path d="M174.566 40.9922H125.435C121.433 40.9922 118.178 37.7367 118.178 33.7359V14.2875C118.178 10.2867 121.433 7.03125 125.435 7.03125H174.566C178.567 7.03125 181.822 10.2867 181.822 14.2875V33.7359C181.822 37.7367 178.567 40.9922 174.566 40.9922ZM125.435 11.7188C124.018 11.7188 122.865 12.8707 122.865 14.2875V33.7359C122.865 35.1527 124.018 36.3047 125.435 36.3047H174.566C175.983 36.3047 177.135 35.1527 177.135 33.7359V14.2875C177.135 12.8707 175.983 11.7188 174.566 11.7188H125.435Z" fill="#C674FF" fill-opacity="0.85"/>
<path d="M67.1299 88.5941C67.0221 88.5941 66.9143 88.5871 66.8065 88.5706C66.0916 88.471 65.4612 88.048 65.1002 87.4222L55.0772 70.0632C54.108 68.3839 53.8502 66.4281 54.3518 64.5566C54.8533 62.6828 56.0545 61.1183 57.7338 60.1492L66.7162 54.9636C68.3944 53.9957 70.3514 53.7367 72.2229 54.2382C74.0955 54.7398 75.6611 55.941 76.6303 57.6203L85.001 72.1175C85.6139 73.1792 85.3057 74.5339 84.2932 75.2242C78.8346 78.9531 73.6092 83.2281 68.7647 87.932C68.3229 88.3585 67.7358 88.5941 67.1299 88.5941ZM70.3408 58.6761C69.8955 58.6761 69.4561 58.7945 69.06 59.0218L60.0764 64.2085C59.4822 64.5507 59.0569 65.105 58.8799 65.7683C58.7018 66.4304 58.7932 67.1242 59.1365 67.7183L67.6737 82.505C71.5467 78.9226 75.6307 75.6027 79.8635 72.5956L72.5686 59.9628C72.2252 59.3675 71.6709 58.9433 71.0088 58.7664C70.7885 58.7066 70.5635 58.6761 70.3408 58.6761Z" fill="#C674FF" fill-opacity="0.85"/>
<path d="M232.87 88.594C232.264 88.594 231.677 88.3597 231.236 87.9319C226.391 83.228 221.166 78.953 215.708 75.2241C214.695 74.5327 214.387 73.1792 215 72.1175L223.371 57.6202C224.341 55.9409 225.905 54.7398 227.779 54.2382C229.653 53.7366 231.608 53.9956 233.285 54.9648L242.267 60.1491C243.946 61.1183 245.146 62.6827 245.648 64.5566C246.151 66.4292 245.893 68.3851 244.924 70.0632L234.901 87.4222C234.539 88.0479 233.909 88.4722 233.193 88.5706C233.084 88.587 232.978 88.594 232.87 88.594ZM220.136 72.5956C224.369 75.6026 228.454 78.9226 232.325 82.505L240.862 67.7183C241.205 67.123 241.297 66.4304 241.12 65.7683C240.943 65.105 240.516 64.5507 239.923 64.2085L230.941 59.023C230.347 58.6796 229.653 58.587 228.991 58.7651C228.329 58.9421 227.775 59.3687 227.431 59.9616L220.136 72.5956Z" fill="#C674FF" fill-opacity="0.85"/>
<path d="M133.623 56.1059C133.061 56.1059 132.512 55.9031 132.083 55.5293C131.572 55.084 131.279 54.4394 131.279 53.7621V38.6484C131.279 37.3547 132.329 36.3047 133.623 36.3047H166.377C167.671 36.3047 168.721 37.3547 168.721 38.6484V53.7609C168.721 54.4383 168.428 55.0828 167.917 55.5281C167.405 55.9734 166.727 56.1762 166.057 56.0836C155.1 54.5754 144.896 54.5754 133.943 56.0836C133.836 56.0988 133.73 56.1059 133.623 56.1059ZM149.999 50.2641C154.638 50.2641 159.277 50.5418 164.033 51.1008V40.9922H135.967V51.0996C140.722 50.543 145.361 50.2641 149.999 50.2641Z" fill="#C674FF" fill-opacity="0.85"/>
<path d="M223.219 171.618H223.276C223.247 130.541 189.773 98.3149 150 98.3418V171.618H150.029L150 171.629V244.905C152.114 244.904 154.242 244.83 156.388 244.642C194.503 241.308 223.302 209.202 223.276 171.629L223.219 171.618Z" fill="#FFFAF2"/>
<path d="M77.9879 157.184C75.4918 156.516 74.0035 153.95 74.6715 151.442C75.3394 148.946 77.9058 147.457 80.4137 148.125C82.9098 148.793 84.398 151.36 83.7301 153.856V153.868C83.1676 155.954 81.2691 157.348 79.2066 157.348C78.8082 157.348 78.398 157.289 77.9879 157.184ZM84.1754 139.043C81.9371 137.743 81.1754 134.883 82.4762 132.645C83.7652 130.395 86.6363 129.633 88.8746 130.934C91.1129 132.235 91.8863 135.094 90.5855 137.332V137.344C89.7183 138.844 88.1363 139.676 86.5191 139.676C85.7223 139.676 84.9137 139.477 84.1754 139.043ZM94.8746 123.141C93.0465 121.313 93.0465 118.348 94.8746 116.52C96.7144 114.692 99.6793 114.692 101.507 116.52C103.336 118.348 103.336 121.325 101.496 123.153C100.582 124.067 99.3863 124.524 98.191 124.524C96.984 124.524 95.7887 124.067 94.8746 123.141ZM109.3 110.543C108 108.293 108.761 105.434 111 104.133C113.25 102.832 116.109 103.594 117.41 105.832C118.711 108.082 117.937 110.942 115.699 112.243C114.961 112.676 114.152 112.875 113.355 112.875C111.738 112.875 110.168 112.043 109.3 110.543ZM126.48 102.059C125.8 99.5629 127.289 96.9848 129.785 96.3168C132.281 95.6489 134.859 97.1254 135.527 99.6215C136.195 102.129 134.718 104.696 132.222 105.375C131.812 105.481 131.402 105.528 131.004 105.528C128.929 105.528 127.043 104.157 126.48 102.059Z" fill="#FFFAF2"/>
<path d="M227.098 164.873C225.403 145.484 216.527 127.577 202.107 114.45C187.788 101.417 169.303 94.2402 150.05 94.2402C150.032 94.2402 150.015 94.2402 149.997 94.2402C147.732 94.2414 145.897 96.0789 145.898 98.3441C145.899 100.608 147.736 102.443 150 102.443C150.009 102.447 150.03 102.443 150.049 102.443C185.575 102.443 215.827 130.172 218.927 165.588C220.535 183.968 214.87 201.896 202.977 216.071C191.083 230.246 174.41 238.938 156.03 240.545C137.653 242.158 119.722 236.489 105.546 224.595C92.1313 213.339 83.6364 197.8 81.4004 180.586H89.4957C90.4543 180.586 91.0075 179.499 90.4426 178.724L78.5082 162.345C78.0407 161.703 77.0821 161.703 76.6145 162.345L64.6801 178.724C64.1153 179.499 64.6696 180.586 65.627 180.586H73.1481C75.4332 200.266 84.9946 218.059 100.272 230.88C114.359 242.699 131.761 249.019 149.891 249.018C152.164 249.018 154.453 248.918 156.744 248.718C177.307 246.919 195.957 237.197 209.259 221.344C222.563 205.491 228.897 185.436 227.098 164.873Z" fill="#9903FF" fill-opacity="0.47"/>
<path d="M150 181.674C145.856 181.674 142.496 178.316 142.496 174.171V98.6773C142.496 94.5324 145.856 91.1738 150 91.1738C154.143 91.1738 157.503 94.5324 157.503 98.6773V174.171C157.503 178.314 154.143 181.674 150 181.674Z" fill="#C674FF" fill-opacity="0.85"/>
</svg>
